# xmcd CD database file
#
# Track frame offsets:
#	150
#	43100
#	73102
#	83464
#	96381
#	112540
#	128380
#	142602
#	156151
#	170674
#	218483
#	228541
#	240950
#	270379
#
# Disc length: 4106 seconds
#
# Revision: 1
# Processed by: cddbd v1.5.1PL2 Copyright (c) Steve Scherf et al.
# Submitted via: CDex 1.51
#
DISCID=a510080e
DTITLE=Roberto Aymes - Bridge
DYEAR=1998
DGENRE=Jazz
TTITLE0=When The Saints Go Marching In
TTITLE1=Animeé
TTITLE2=Passing Gear
TTITLE3=Moonlight Serenade
TTITLE4=It Don´t Mean A Thing (If It Ain´t Got That Swing)
TTITLE5=El Senor de Ipanema
TTITLE6=Daily Double
TTITLE7=Irlandaise
TTITLE8=A String Of Pearls
TTITLE9=Ballad
TTITLE10=Stratosphere
TTITLE11=Poultry In Motion
TTITLE12=Prelude In Jazz
TTITLE13=Sing Sing Sing (With A Swing)
EXTD=YEAR: 1998
EXTT0=
EXTT1=
EXTT2=
EXTT3=
EXTT4=
EXTT5=
EXTT6=
EXTT7=
EXTT8=
EXTT9=
EXTT10=
EXTT11=
EXTT12=
EXTT13=
PLAYORDER=
